<svg version="1.1" viewBox="0.0 0.0 784.8057742782153 335.4488188976378" fill="none" stroke="none" stroke-linecap="square" stroke-miterlimit="10" xmlns:xlink="http://www.w3.org/1999/xlink" xmlns="http://www.w3.org/2000/svg"><clipPath id="p.0"><path d="m0 0l784.8058 0l0 335.44882l-784.8058 0l0 -335.44882z" clip-rule="nonzero"/></clipPath><g clip-path="url(#p.0)"><path fill="#000000" fill-opacity="0.0" d="m0 0l784.8058 0l0 335.44882l-784.8058 0z" fill-rule="evenodd"/><path fill="#5a8c44" d="m5.3805776 166.28609l0 0c0 -88.26989 71.556885 -159.82677 159.82677 -159.82677l452.0 0l0 0c42.388733 0 83.04126 16.838842 113.01459 46.81218c29.973328 29.973331 46.812195 70.6259 46.812195 113.01459l0 0l0 0c0 88.2699 -71.556885 159.82677 -159.82678 159.82677l-452.0 0c-88.26989 0 -159.82677 -71.55687 -159.82677 -159.82677z" fill-rule="evenodd"/><path stroke="#a86a0c" stroke-width="12.0" stroke-linejoin="round" stroke-linecap="butt" d="m5.3805776 166.28609l0 0c0 -88.26989 71.556885 -159.82677 159.82677 -159.82677l452.0 0l0 0c42.388733 0 83.04126 16.838842 113.01459 46.81218c29.973328 29.973331 46.812195 70.6259 46.812195 113.01459l0 0l0 0c0 88.2699 -71.556885 159.82677 -159.82678 159.82677l-452.0 0c-88.26989 0 -159.82677 -71.55687 -159.82677 -159.82677z" fill-rule="evenodd"/><path fill="#000000" fill-opacity="0.0" d="m11.839895 166.28609l0 0c0 -85.5563 69.357086 -154.91339 154.91339 -154.91339l448.9134 0l0 0c41.08557 0 80.4884 16.321184 109.54028 45.37308c29.05188 29.051891 45.373108 68.45473 45.373108 109.5403l0 0l0 0c0 85.556305 -69.35712 154.91338 -154.91339 154.91338l-448.9134 0c-85.5563 0 -154.91339 -69.35707 -154.91339 -154.91338z" fill-rule="evenodd"/><path stroke="#000000" stroke-width="2.0" stroke-linejoin="round" stroke-linecap="butt" d="m11.839895 166.28609l0 0c0 -85.5563 69.357086 -154.91339 154.91339 -154.91339l448.9134 0l0 0c41.08557 0 80.4884 16.321184 109.54028 45.37308c29.05188 29.051891 45.373108 68.45473 45.373108 109.5403l0 0l0 0c0 85.556305 -69.35712 154.91338 -154.91339 154.91338l-448.9134 0c-85.5563 0 -154.91339 -69.35707 -154.91339 -154.91338z" fill-rule="evenodd"/><path fill="#000000" fill-opacity="0.0" d="m0 166.29921l0 0c0 -91.84451 74.4547 -166.29921 166.29921 -166.29921l449.82678 0l0 0c44.105286 0 86.404175 17.52076 117.59131 48.707912c31.187134 31.187153 48.707886 73.48601 48.707886 117.59129l0 0l0 0c0 91.84453 -74.45465 166.29921 -166.2992 166.29921l-449.82678 0c-91.84451 0 -166.29921 -74.45468 -166.29921 -166.29921z" fill-rule="evenodd"/><path stroke="#000000" stroke-width="2.0" stroke-linejoin="round" stroke-linecap="butt" d="m0 166.29921l0 0c0 -91.84451 74.4547 -166.29921 166.29921 -166.29921l449.82678 0l0 0c44.105286 0 86.404175 17.52076 117.59131 48.707912c31.187134 31.187153 48.707886 73.48601 48.707886 117.59129l0 0l0 0c0 91.84453 -74.45465 166.29921 -166.2992 166.29921l-449.82678 0c-91.84451 0 -166.29921 -74.45468 -166.29921 -166.29921z" fill-rule="evenodd"/><path fill="#000000" fill-opacity="0.0" d="m86.68241 166.28609l0 0c0 -57.02883 46.23101 -103.25984 103.25985 -103.25984l405.98425 0l0 0c27.38623 0 53.650757 10.879135 73.01575 30.24411c19.36499 19.364975 30.24408 45.629517 30.24408 73.01573l0 0l0 0c0 57.02884 -46.231018 103.25984 -103.25983 103.25984l-405.98425 0c-57.02884 0 -103.25985 -46.231003 -103.25985 -103.25984z" fill-rule="evenodd"/><path stroke="#d9d9d9" stroke-width="2.0" stroke-linejoin="round" stroke-linecap="butt" d="m86.68241 166.28609l0 0c0 -57.02883 46.23101 -103.25984 103.25985 -103.25984l405.98425 0l0 0c27.38623 0 53.650757 10.879135 73.01575 30.24411c19.36499 19.364975 30.24408 45.629517 30.24408 73.01573l0 0l0 0c0 57.02884 -46.231018 103.25984 -103.25983 103.25984l-405.98425 0c-57.02884 0 -103.25985 -46.231003 -103.25985 -103.25984z" fill-rule="evenodd"/></g></svg>